<?xml version="1.0" standalone="no"?>
<!DOCTYPE svg PUBLIC "-//W3C//DTD SVG 20010904//EN"
 "http://www.w3.org/TR/2001/REC-SVG-20010904/DTD/svg10.dtd">
<svg version="1.0" xmlns="http://www.w3.org/2000/svg"
 width="1035.000000pt" height="241.000000pt" viewBox="0 0 1035.000000 241.000000"
 preserveAspectRatio="xMidYMid meet">

<g transform="translate(0.000000,241.000000) scale(0.100000,-0.100000)"
fill="#000000" stroke="none">
<path d="M135 2367 c-42 -17 -57 -27 -88 -65 l-27 -34 0 -1042 0 -1043 23 -34
c32 -48 80 -77 140 -84 29 -3 2297 -5 5042 -3 4621 3 4992 4 5020 20 37 20 68
53 89 95 14 29 16 132 16 1042 0 687 -3 1019 -11 1038 -15 42 -79 102 -119
113 -55 15 -10046 12 -10085 -3z m10097 -106 l33 -29 3 -994 c2 -732 -1 -1000
-9 -1021 -7 -15 -23 -37 -37 -47 -24 -20 -69 -20 -5041 -20 -4622 0 -5018 1
-5040 16 -52 37 -51 9 -51 1054 0 1045 -1 1017 51 1054 22 15 418 16 5041 16
l5018 0 32 -29z"/>
<path d="M1185 2126 c-16 -13 -95 -67 -175 -121 -80 -54 -199 -136 -266 -181
-67 -45 -136 -89 -155 -97 -19 -8 -115 -71 -214 -139 -133 -92 -180 -130 -179
-144 1 -10 89 -271 195 -579 l194 -560 653 -3 c358 -1 652 0 652 2 0 2 36 109
81 237 44 129 104 304 134 389 29 85 82 239 118 341 l65 187 -104 71 c-56 39
-111 74 -121 78 -22 8 -508 332 -683 455 -69 48 -134 88 -145 88 -11 0 -33
-11 -50 -24z m70 -266 l17 -50 54 0 c30 0 54 -3 54 -8 0 -4 -18 -18 -40 -32
-45 -28 -46 -31 -25 -89 8 -22 11 -41 8 -41 -3 0 -20 10 -37 23 -17 13 -36 26
-42 30 -6 4 -30 -7 -54 -24 -23 -17 -43 -29 -45 -27 -2 2 2 22 10 43 20 57 20
57 -33 90 l-47 30 62 3 62 3 16 49 c9 28 18 50 20 50 2 0 11 -22 20 -50z
m-285 -116 c0 -8 5 -23 12 -33 15 -25 -3 -49 -39 -53 -15 -2 -28 -9 -31 -16
-7 -22 102 32 114 57 20 40 30 44 63 30 41 -18 45 -35 20 -70 -24 -34 -29 -35
-58 -10 -24 21 -39 19 -104 -16 l-32 -18 29 -3 c19 -2 34 3 47 17 22 23 37 20
61 -13 17 -23 16 -25 -5 -50 -13 -14 -26 -26 -29 -26 -4 0 -21 14 -38 30 -19
19 -41 30 -59 30 -29 0 -92 -36 -99 -57 -7 -24 29 -13 57 17 27 30 28 30 59
14 38 -18 39 -28 10 -60 -27 -28 -41 -30 -58 -9 -20 24 -74 18 -109 -11 -34
-28 -56 -62 -47 -71 8 -8 46 27 46 42 0 27 28 38 60 24 34 -16 38 -37 12 -69
-17 -21 -21 -22 -54 -10 -32 12 -40 11 -63 -4 -26 -17 -62 -83 -51 -94 12 -11
36 22 36 49 0 35 8 40 53 32 34 -5 36 -8 35 -39 -2 -44 -22 -63 -49 -46 -27
17 -87 -8 -93 -40 -3 -13 -7 -35 -11 -50 -3 -16 -1 -28 4 -28 16 0 25 22 23
56 -2 29 1 32 30 37 42 6 57 -6 55 -46 -2 -30 -4 -32 -38 -32 -53 0 -79 -27
-79 -82 0 -31 4 -43 13 -40 7 2 12 21 12 47 0 41 2 44 34 52 46 12 60 5 59
-32 -1 -34 -12 -45 -47 -45 -14 0 -32 -11 -44 -27 -18 -24 -19 -34 -11 -75 5
-26 14 -47 19 -46 18 3 17 34 -1 54 -22 24 -12 46 30 69 25 14 28 14 46 -10
26 -34 26 -70 0 -70 -28 0 -60 -35 -60 -67 0 -33 53 -126 58 -101 2 9 -7 31
-20 48 l-22 31 29 24 c32 26 65 33 65 13 0 -6 8 -20 17 -31 17 -18 17 -20 -20
-51 -43 -36 -45 -51 -15 -83 37 -39 11 -38 -33 2 -35 31 -46 36 -73 30 -94
-19 -90 -20 -103 21 -14 46 -12 50 34 69 40 17 63 7 63 -26 0 -19 25 -49 42
-49 13 0 -28 69 -55 93 -17 15 -30 17 -68 12 -52 -7 -53 -6 -63 48 -6 31 -4
38 11 43 10 3 26 10 35 15 23 12 24 12 43 -7 8 -9 13 -24 10 -33 -3 -9 2 -26
10 -37 14 -19 14 -19 15 1 0 37 -20 92 -41 111 -14 12 -36 19 -63 19 l-41 0 0
40 c0 37 2 40 35 47 50 11 60 4 60 -40 0 -23 6 -45 15 -52 13 -11 15 -6 15 39
0 65 -22 101 -60 101 -38 0 -53 21 -44 65 8 42 16 47 64 37 38 -8 52 -40 30
-67 -13 -15 -4 -59 10 -50 14 9 22 102 11 124 -7 11 -25 28 -41 36 -34 18 -38
40 -11 74 15 19 23 22 50 16 41 -9 48 -28 26 -68 -9 -18 -15 -42 -13 -52 3
-15 10 -8 26 30 27 58 22 97 -15 137 l-26 27 29 30 c35 37 39 38 70 9 30 -29
30 -39 -1 -66 -20 -18 -36 -62 -21 -62 11 0 76 97 76 114 0 11 -11 32 -25 46
-25 26 -26 60 -2 60 6 0 19 8 29 17 18 16 20 15 43 -10 32 -34 31 -42 -5 -69
-16 -12 -30 -30 -30 -41 0 -17 5 -15 39 14 49 43 55 65 31 104 -22 36 -17 48
30 67 39 16 60 13 60 -8z m508 -10 c12 -8 22 -10 22 -5 0 19 15 12 32 -16 15
-24 18 -25 18 -8 1 19 2 19 20 -4 11 -13 20 -18 20 -12 0 24 19 9 33 -26 l16
-38 1 30 c1 29 1 29 16 10 11 -15 13 -33 9 -67 -4 -28 -3 -48 2 -48 5 0 10 8
10 18 -1 9 0 31 2 47 2 29 2 29 16 11 18 -24 19 -50 4 -75 -8 -12 -9 -23 -2
-36 9 -15 12 -9 18 33 8 58 21 60 31 4 7 -34 8 -35 14 -12 l7 25 12 -29 c9
-24 8 -33 -8 -60 -14 -22 -17 -36 -11 -46 8 -13 10 -12 10 3 0 24 30 68 41 61
16 -10 9 -47 -12 -70 -15 -16 -19 -29 -14 -41 8 -17 8 -17 13 2 2 11 13 31 23
44 l19 24 0 -30 c0 -17 -9 -38 -20 -48 -21 -19 -27 -45 -10 -45 6 0 10 6 10
13 0 8 11 24 25 37 l25 23 0 -26 c0 -16 -10 -36 -25 -49 -14 -12 -25 -28 -25
-35 0 -7 13 1 30 19 l29 33 1 -27 c0 -17 -9 -34 -25 -46 -14 -11 -25 -25 -25
-32 0 -6 14 0 32 15 20 17 34 23 36 16 7 -20 -7 -41 -33 -51 -15 -6 -25 -17
-25 -30 0 -19 1 -19 19 -2 39 34 50 42 54 34 10 -16 -15 -54 -43 -65 -18 -7
-30 -19 -30 -30 0 -16 4 -15 35 9 20 15 38 24 42 21 11 -11 -27 -57 -47 -57
-11 0 -24 -9 -30 -20 -13 -25 -9 -25 32 0 37 22 48 25 48 10 0 -19 -40 -50
-65 -50 -19 0 -25 -5 -25 -22 0 -19 2 -20 13 -6 12 16 67 31 67 18 0 -15 -36
-38 -65 -42 -20 -2 -31 -9 -34 -23 -2 -15 0 -17 10 -9 18 14 79 35 79 27 0
-18 -47 -53 -71 -53 -15 0 -31 -5 -34 -10 -7 -11 -2 -10 70 5 29 6 29 6 11
-14 -10 -11 -28 -24 -40 -28 -20 -6 -20 -7 4 -13 25 -7 25 -7 -10 -23 -33 -14
-33 -15 -10 -19 l25 -3 -29 -19 c-23 -16 -33 -18 -57 -9 -23 9 -31 8 -41 -5
-7 -9 -8 -13 -2 -9 6 3 31 3 55 -2 l44 -8 -38 -17 c-24 -10 -47 -14 -60 -9
-12 4 -26 6 -32 5 -18 -3 -47 72 -40 101 4 15 11 24 16 21 5 -3 9 7 9 23 1 25
2 26 14 10 12 -15 14 -11 19 35 4 28 10 54 15 57 14 10 32 95 25 120 -5 18 -3
22 6 16 10 -6 11 -3 2 13 -16 29 -14 37 6 21 11 -9 10 -4 -5 16 -12 17 -23 46
-26 65 -2 19 -18 61 -35 94 -25 47 -28 57 -14 52 15 -5 15 -4 -1 9 -11 8 -24
15 -29 15 -5 0 -7 7 -3 15 3 8 2 15 -2 15 -4 0 -29 20 -55 45 -27 25 -54 45
-60 46 -7 1 -1 5 13 9 24 8 24 8 -7 9 -33 1 -52 16 -31 24 7 3 1 6 -14 6 -29
1 -46 16 -26 24 7 3 -5 6 -27 6 -29 1 -36 4 -25 11 13 8 13 9 0 14 -45 14 -45
14 -27 15 23 1 22 18 -3 26 -32 10 -23 25 14 25 18 0 45 -9 59 -20 27 -21 51
-28 26 -7 -18 14 -42 67 -31 67 4 0 18 -7 30 -16z m-303 -388 l55 -27 0 -136
0 -135 -32 22 c-61 40 -153 80 -183 79 -30 -1 -30 -1 5 -9 53 -10 107 -36 163
-76 33 -24 55 -33 62 -28 85 64 174 104 231 104 28 0 35 -4 32 -17 -2 -11 -22
-21 -63 -30 -57 -13 -165 -74 -165 -94 0 -5 -16 -9 -35 -9 -26 0 -51 12 -94
43 -52 39 -103 60 -166 69 -32 5 -30 42 12 165 l38 115 42 -5 c24 -2 68 -17
98 -31z m294 -64 c19 -53 36 -102 38 -109 3 -7 -17 -16 -54 -23 -57 -12 -117
-39 -180 -81 l-33 -21 0 134 c0 127 1 134 23 147 38 24 110 50 142 50 29 1 31
-2 64 -97z m-367 -259 l136 -73 134 70 c74 39 140 70 147 70 6 0 11 -8 11 -18
0 -13 -34 -34 -120 -77 -66 -33 -120 -62 -120 -65 0 -3 32 -23 70 -44 39 -22
70 -43 70 -47 0 -3 -6 -12 -14 -18 -10 -9 -32 -1 -96 35 l-83 47 -87 -43 c-80
-39 -110 -44 -110 -20 0 6 32 26 70 45 39 19 70 39 70 43 0 4 -54 36 -120 72
-66 35 -120 69 -120 75 0 14 11 27 20 23 3 -2 67 -36 142 -75z m574 -285 c35
-33 64 -64 64 -68 0 -12 -113 -87 -188 -125 -143 -71 -324 -94 -471 -60 -85
20 -211 81 -289 139 -56 41 -62 49 -51 64 8 9 1 6 -14 -7 -15 -14 -27 -28 -27
-32 0 -5 14 -24 31 -44 57 -64 14 -85 -83 -40 -29 14 -70 25 -91 25 -34 0 -37
2 -28 19 6 10 24 24 41 31 16 7 30 17 30 22 0 11 -61 68 -72 68 -5 0 -8 5 -8
11 0 18 178 6 218 -15 l32 -17 48 41 c27 22 56 40 66 40 10 0 32 -12 50 -27
81 -68 232 -111 356 -100 92 8 164 34 245 89 39 26 72 47 73 48 2 0 33 -28 68
-62z m253 16 l31 -6 -45 -40 c-46 -41 -55 -58 -31 -58 16 0 66 -38 66 -51 0
-5 -17 -9 -37 -9 -21 0 -62 -11 -91 -25 -95 -44 -137 -24 -82 39 17 18 30 37
30 42 0 4 -14 22 -31 40 l-31 32 49 15 c43 14 76 21 124 26 9 0 31 -2 48 -5z"/>
<path d="M1500 1681 c0 -5 5 -13 10 -16 6 -3 10 -2 10 4 0 5 -4 13 -10 16 -5
3 -10 2 -10 -4z"/>
<path d="M1540 1661 c0 -5 5 -13 10 -16 6 -3 10 -2 10 4 0 5 -4 13 -10 16 -5
3 -10 2 -10 -4z"/>
<path d="M1475 1650 c3 -5 13 -10 21 -10 8 0 14 -4 14 -10 0 -5 8 -10 18 -10
14 0 12 4 -8 20 -26 21 -56 27 -45 10z"/>
<path d="M1580 1631 c0 -6 4 -13 10 -16 6 -3 7 1 4 9 -7 18 -14 21 -14 7z"/>
<path d="M1624 1609 c-3 -6 -1 -16 5 -22 8 -8 11 -5 11 11 0 24 -5 28 -16 11z"/>
<path d="M1535 1600 c-4 -6 7 -10 25 -10 18 0 29 4 25 10 -3 6 -15 10 -25 10
-10 0 -22 -4 -25 -10z"/>
<path d="M1620 1540 c-12 -8 -9 -10 13 -10 16 0 26 4 22 10 -8 12 -16 12 -35
0z"/>
<path d="M1641 1516 c2 -2 15 -9 29 -16 23 -12 24 -12 11 3 -7 10 -20 17 -29
17 -8 0 -13 -2 -11 -4z"/>
<path d="M1731 1496 c-7 -8 -8 -17 -3 -20 6 -3 12 3 15 14 6 24 4 25 -12 6z"/>
<path d="M1695 1470 c3 -5 8 -10 11 -10 2 0 4 5 4 10 0 6 -5 10 -11 10 -5 0
-7 -4 -4 -10z"/>
<path d="M1720 1425 c7 -9 15 -13 17 -11 7 7 -7 26 -19 26 -6 0 -6 -6 2 -15z"/>
<path d="M1740 1375 c7 -8 16 -15 21 -15 5 0 6 7 3 15 -4 8 -13 15 -21 15 -13
0 -13 -3 -3 -15z"/>
<path d="M1762 1338 c2 -6 10 -14 16 -16 7 -2 10 2 6 12 -7 18 -28 22 -22 4z"/>
<path d="M1780 1285 c7 -9 15 -13 17 -11 7 7 -7 26 -19 26 -6 0 -6 -6 2 -15z"/>
<path d="M1794 1235 c8 -8 17 -15 20 -15 3 0 3 7 0 15 -4 8 -13 15 -21 15 -12
0 -12 -2 1 -15z"/>
<path d="M1790 1196 c0 -2 7 -9 15 -16 12 -10 15 -10 15 4 0 9 -7 16 -15 16
-8 0 -15 -2 -15 -4z"/>
<path d="M1797 1136 c10 -13 20 -20 21 -15 7 17 -7 39 -23 39 -14 0 -14 -3 2
-24z"/>
<path d="M1793 1088 c12 -13 24 -19 26 -14 2 5 -4 15 -15 23 -28 21 -35 15
-11 -9z"/>
<path d="M1787 1030 c3 -11 9 -20 14 -20 5 0 9 9 9 20 0 11 -6 20 -14 20 -9 0
-12 -7 -9 -20z"/>
<path d="M1773 976 c10 -21 13 -22 21 -9 5 10 4 18 -5 24 -23 15 -28 10 -16
-15z"/>
<path d="M1760 942 c6 -13 14 -21 18 -18 3 4 -2 14 -12 24 -18 16 -18 16 -6
-6z"/>
<path d="M1740 884 c0 -8 5 -12 10 -9 6 3 10 10 10 16 0 5 -4 9 -10 9 -5 0
-10 -7 -10 -16z"/>
<path d="M1769 873 c-12 -15 -12 -16 4 -10 10 4 23 7 28 7 6 0 7 5 4 10 -9 15
-21 12 -36 -7z"/>
<path d="M1717 850 c3 -11 9 -17 15 -14 5 3 4 12 -3 20 -16 19 -18 18 -12 -6z"/>
<path d="M1745 830 c-8 -13 5 -13 25 0 13 8 13 10 -2 10 -9 0 -20 -4 -23 -10z"/>
<path d="M1690 804 c0 -8 5 -12 10 -9 6 3 10 10 10 16 0 5 -4 9 -10 9 -5 0
-10 -7 -10 -16z"/>
<path d="M1120 1266 c0 -2 7 -7 16 -10 8 -3 12 -2 9 4 -6 10 -25 14 -25 6z"/>
<path d="M832 717 c-35 -36 -39 -47 -18 -47 14 0 66 58 66 73 0 15 -18 5 -48
-26z"/>
<path d="M1600 730 c0 -19 57 -73 68 -66 7 4 12 12 12 17 0 6 -4 8 -8 5 -5 -3
-19 8 -31 24 -21 30 -41 39 -41 20z"/>
<path d="M866 696 c-29 -39 -34 -61 -11 -52 9 3 15 0 15 -9 0 -25 19 -17 26
10 3 14 15 30 25 36 25 13 24 32 -1 24 -15 -5 -18 -3 -14 9 11 28 -13 17 -40
-18z"/>
<path d="M1554 709 c-9 -15 26 -89 43 -89 7 0 13 5 13 10 0 6 7 10 15 10 23 0
18 13 -18 48 -36 35 -42 37 -53 21z"/>
<path d="M923 650 c-24 -42 -14 -67 13 -34 14 18 14 18 5 -3 -20 -41 7 -35 34
7 26 42 25 76 -1 43 -14 -17 -15 -17 -9 5 10 37 -18 26 -42 -18z"/>
<path d="M1512 681 c-7 -4 -10 -16 -7 -27 6 -18 6 -18 -9 0 -12 14 -19 17 -27
9 -12 -12 24 -93 41 -93 13 0 13 6 -1 33 -12 22 -12 22 10 3 21 -19 21 -19 21
0 0 16 2 16 10 4 19 -30 23 1 4 36 -22 42 -26 45 -42 35z"/>
<path d="M993 616 c-19 -38 -20 -45 -7 -50 23 -9 27 -7 21 7 -3 7 1 24 9 38 7
13 13 30 14 37 0 25 -17 11 -37 -32z"/>
<path d="M1413 642 c-10 -6 -10 -17 -2 -47 13 -48 26 -64 34 -43 4 10 14 14
26 11 17 -5 17 -1 -7 41 -27 48 -31 51 -51 38z m37 -53 c0 -6 -4 -7 -10 -4 -5
3 -10 11 -10 16 0 6 5 7 10 4 6 -3 10 -11 10 -16z"/>
<path d="M1047 605 c-22 -47 -22 -58 4 -50 15 5 19 4 15 -4 -4 -6 -1 -11 7
-11 15 0 32 73 22 91 -12 19 -32 8 -48 -26z m26 -20 c-3 -9 -8 -14 -10 -11 -3
3 -2 9 2 15 9 16 15 13 8 -4z"/>
<path d="M1348 623 c-21 -5 -21 -3 -7 -58 7 -29 15 -42 24 -39 7 3 11 15 9 27
-5 22 -4 22 7 0 7 -13 16 -23 21 -23 10 0 10 -4 -6 49 -13 47 -19 52 -48 44z"/>
<path d="M1117 606 c-3 -8 1 -22 8 -33 8 -10 14 -22 15 -28 0 -5 -5 -3 -10 5
-7 11 -12 12 -20 4 -14 -14 14 -39 35 -30 17 6 20 41 5 51 -5 3 -10 14 -9 23
0 11 3 12 6 5 7 -18 23 -16 23 2 0 19 -46 20 -53 1z"/>
<path d="M1293 613 c-14 -5 -16 -34 -7 -70 6 -23 44 -33 44 -13 0 6 -4 10 -9
10 -5 0 -8 18 -6 40 4 40 1 43 -22 33z"/>
<path d="M1210 561 c0 -42 3 -51 18 -51 31 0 41 15 39 55 -3 35 -6 40 -30 43
-26 3 -27 2 -27 -47z m35 30 c3 -5 1 -12 -5 -16 -5 -3 -10 1 -10 9 0 18 6 21
15 7z m-8 -53 c-3 -8 -6 -5 -6 6 -1 11 2 17 5 13 3 -3 4 -12 1 -19z"/>
<path d="M7843 1811 c-83 -38 -131 -145 -120 -266 13 -140 82 -215 197 -215
58 0 82 10 128 53 l32 31 0 -37 0 -37 50 0 50 0 0 135 0 135 -125 0 -125 0 0
-40 0 -40 60 0 c33 0 60 -2 60 -5 0 -16 -31 -63 -45 -69 -48 -18 -97 0 -120
44 -19 37 -19 133 0 170 26 50 89 53 115 5 8 -14 20 -23 27 -21 7 3 35 8 63
12 33 4 50 11 50 21 0 40 -63 113 -113 132 -45 17 -137 13 -184 -8z"/>
<path d="M2600 1580 l0 -240 75 0 75 0 0 73 c0 48 5 80 14 93 14 18 15 17 31
-19 8 -21 26 -62 40 -92 l24 -55 80 0 80 0 -24 55 c-14 30 -45 95 -70 144 -25
50 -45 92 -45 95 0 2 31 45 70 95 l69 91 -84 0 -83 0 -48 -75 c-26 -41 -50
-75 -53 -75 -4 0 -5 34 -3 75 l4 75 -76 0 -76 0 0 -240z"/>
<path d="M3060 1580 l0 -240 145 0 145 0 0 55 0 55 -75 0 -75 0 0 45 0 45 55
0 55 0 0 45 0 45 -55 0 -55 0 0 40 0 40 70 0 70 0 0 55 0 55 -140 0 -140 0 0
-240z"/>
<path d="M3390 1580 l0 -240 65 0 65 0 2 162 3 161 46 -159 46 -159 58 0 59 0
45 155 46 155 3 -157 3 -158 64 0 65 0 0 240 0 241 -97 -3 -96 -3 -42 -147
c-22 -81 -44 -150 -47 -154 -4 -3 -11 9 -16 28 -5 18 -24 88 -42 156 l-34 122
-98 0 -98 0 0 -240z"/>
<path d="M4020 1580 l0 -240 145 0 145 0 0 55 0 55 -75 0 -75 0 0 45 0 45 55
0 55 0 0 45 0 45 -55 0 -55 0 0 40 0 40 70 0 70 0 0 55 0 55 -140 0 -140 0 0
-240z"/>
<path d="M4350 1580 l0 -240 65 0 64 0 3 158 3 157 69 -157 70 -158 88 0 88 0
0 240 0 240 -65 0 -65 0 0 -157 c0 -87 -4 -153 -9 -147 -4 5 -37 75 -72 157
l-64 147 -87 0 -88 0 0 -240z"/>
<path d="M4840 1760 l0 -60 55 0 55 0 0 -180 0 -180 70 0 70 0 0 180 0 180 55
0 55 0 0 60 0 60 -180 0 -180 0 0 -60z"/>
<path d="M5240 1580 l0 -240 145 0 145 0 0 55 0 55 -76 0 -75 0 3 43 3 42 58
3 57 3 0 44 0 45 -60 0 -60 0 0 40 0 40 75 0 75 0 0 55 0 55 -145 0 -145 0 0
-240z"/>
<path d="M5570 1581 l0 -241 75 0 75 0 0 85 c0 76 2 85 19 85 27 0 39 -19 52
-80 7 -32 21 -63 36 -78 21 -21 31 -24 79 -20 68 6 89 23 75 61 -6 16 -18 27
-30 27 -14 0 -21 10 -26 38 -3 20 -13 47 -21 59 -13 21 -12 25 17 51 63 56 47
177 -30 224 -32 21 -51 23 -178 26 l-143 4 0 -241z m225 125 c11 -8 18 -26 18
-46 0 -38 -23 -60 -65 -60 -28 0 -28 1 -28 60 0 59 0 60 28 60 16 0 37 -6 47
-14z"/>
<path d="M6020 1580 l0 -240 75 0 75 0 0 240 0 240 -75 0 -75 0 0 -240z"/>
<path d="M6316 1768 c-8 -29 -36 -129 -61 -223 -26 -93 -49 -178 -51 -187 -5
-16 3 -18 65 -18 69 0 71 1 77 28 3 15 7 33 10 40 2 8 24 12 64 12 40 0 62 -4
64 -12 3 -7 7 -25 10 -40 6 -27 8 -28 77 -28 l71 0 -7 28 c-3 16 -32 122 -64
238 l-58 209 -91 3 -91 3 -15 -53z m144 -230 c0 -14 -8 -18 -40 -18 -22 0 -40
5 -40 10 0 13 29 138 37 160 6 14 42 -116 43 -152z"/>
<path d="M6680 1580 l0 -240 65 0 65 0 0 158 1 157 68 -155 69 -155 91 -3 91
-3 0 241 0 240 -65 0 -65 0 0 -155 c0 -85 -3 -155 -7 -155 -5 0 -38 69 -74
153 l-66 152 -87 3 -86 3 0 -241z"/>
<path d="M7322 1588 c-35 -128 -63 -236 -62 -240 0 -5 31 -8 69 -8 l69 0 7 40
7 40 63 0 63 0 7 -40 7 -40 75 0 c62 0 74 3 70 15 -7 17 -127 453 -127 460 0
3 -42 5 -93 5 l-92 0 -63 -232z m179 25 c10 -43 18 -81 19 -85 0 -5 -21 -8
-46 -8 -33 0 -45 4 -41 13 2 6 12 47 22 89 10 43 21 76 23 73 2 -2 13 -39 23
-82z"/>
<path d="M8340 1815 c0 -5 -118 -442 -125 -462 -3 -10 14 -13 65 -13 l69 0 11
40 11 41 62 -3 61 -3 9 -37 9 -38 72 0 72 0 -65 240 -66 240 -92 0 c-51 0 -93
-2 -93 -5z m118 -208 l20 -87 -44 0 c-24 0 -44 3 -44 8 1 26 40 175 45 170 2
-2 13 -43 23 -91z"/>
<path d="M8690 1580 l0 -240 65 0 65 0 1 163 1 162 20 -65 c11 -36 33 -109 49
-163 l30 -98 57 3 56 3 46 155 45 155 3 -157 3 -158 64 0 65 0 0 240 0 241
-97 -3 -96 -3 -42 -147 c-22 -81 -44 -150 -47 -153 -7 -7 -5 -14 -54 168 l-37
137 -99 0 -98 0 0 -240z"/>
<path d="M9427 1813 c-6 -9 -127 -455 -127 -466 0 -4 31 -7 69 -7 l69 0 7 40
7 40 64 0 64 0 6 -40 7 -40 74 0 c66 0 74 2 69 18 -3 9 -30 109 -61 222 -31
113 -58 213 -61 223 -5 14 -18 17 -94 17 -49 0 -91 -3 -93 -7z m112 -188 c7
-33 15 -70 18 -82 5 -21 2 -23 -39 -23 l-45 0 20 90 c11 50 23 87 27 83 4 -5
12 -35 19 -68z"/>
<path d="M3745 1026 c-109 -48 -123 -216 -24 -286 58 -42 166 -24 205 35 26
40 36 101 23 148 -24 93 -119 141 -204 103z m99 -85 c20 -22 24 -88 7 -119
-17 -33 -58 -39 -84 -14 -27 27 -28 103 -2 132 23 25 57 26 79 1z"/>
<path d="M2480 875 l0 -155 45 0 45 0 0 48 c0 43 13 83 23 72 2 -3 14 -31 27
-62 l24 -58 48 0 c26 0 48 4 48 10 0 5 -19 48 -42 95 -31 62 -40 89 -33 100 6
8 25 35 43 60 l33 45 -50 0 c-50 0 -51 -1 -86 -52 l-35 -53 0 53 0 52 -45 0
-45 0 0 -155z"/>
<path d="M2845 1018 c-11 -32 -75 -274 -75 -285 0 -8 14 -13 39 -13 35 0 40 4
50 31 9 27 14 30 48 27 30 -2 38 -8 43 -28 5 -21 12 -25 48 -28 29 -2 42 1 42
10 0 7 -17 76 -38 153 l-38 140 -57 3 c-40 2 -59 -1 -62 -10z m84 -160 c1 -13
-7 -18 -24 -18 -29 0 -29 4 -13 68 l12 47 12 -40 c7 -22 13 -48 13 -57z"/>
<path d="M3080 875 l0 -155 40 0 39 0 3 100 3 101 43 -101 44 -100 54 0 54 0
0 155 0 155 -40 0 -39 0 -3 -102 -3 -103 -44 103 -44 102 -54 0 -53 0 0 -155z"/>
<path d="M3400 990 c0 -39 1 -40 35 -40 l35 0 0 -115 0 -115 45 0 45 0 0 114
0 115 32 3 c28 3 31 6 32 41 l1 37 -112 0 -113 0 0 -40z"/>
<path d="M3992 878 l3 -153 43 -3 42 -3 0 55 c0 49 2 56 20 56 14 0 22 -11 31
-42 6 -24 16 -49 21 -55 13 -16 80 -17 95 -2 14 14 6 39 -13 39 -7 0 -16 16
-20 35 -3 19 -10 38 -14 40 -5 3 2 16 16 30 42 42 26 112 -31 140 -22 10 -62
15 -114 15 l-82 0 3 -152z m143 76 c19 -19 16 -43 -6 -57 -26 -16 -49 -1 -49
31 0 45 24 56 55 26z"/>
<path d="M4360 875 l0 -155 45 0 45 0 0 48 c0 43 13 83 23 72 2 -3 14 -31 26
-62 l23 -58 49 0 c27 0 49 3 49 6 0 3 -19 46 -42 96 -29 62 -39 94 -32 104 5
7 24 34 42 59 l33 45 -50 0 c-48 0 -51 -2 -83 -47 l-33 -48 -3 48 -3 47 -45 0
-44 0 0 -155z"/>
<path d="M4686 889 c-20 -78 -40 -147 -43 -155 -4 -11 5 -14 40 -14 42 0 46 2
52 30 6 27 10 30 46 30 36 0 40 -3 46 -30 5 -28 9 -30 49 -30 24 0 44 3 44 8
0 6 -61 236 -76 285 -4 14 -17 17 -62 17 l-58 0 -38 -141z m124 -41 c0 -5 -13
-8 -29 -8 -29 0 -29 0 -19 43 17 72 20 74 34 22 8 -27 14 -53 14 -57z"/>
<path d="M4955 878 l0 -153 98 0 c96 0 100 1 123 28 31 36 30 71 -2 104 -25
25 -25 25 -5 40 32 22 29 85 -5 112 -23 18 -41 21 -118 21 l-92 0 1 -152z
m143 80 c16 -16 15 -23 -4 -42 -27 -27 -44 -20 -44 19 0 27 4 35 18 35 10 0
23 -5 30 -12z m7 -128 c8 -25 -10 -50 -36 -50 -15 0 -19 7 -19 35 0 30 3 35
24 35 16 0 27 -7 31 -20z"/>
<path d="M5240 904 c0 -125 0 -126 29 -155 38 -37 115 -43 172 -13 38 19 49
61 49 185 l0 109 -45 0 -45 0 0 -103 c0 -115 -11 -144 -48 -133 -21 7 -22 13
-22 122 l0 114 -45 0 -45 0 0 -126z"/>
<path d="M5530 876 l0 -156 45 0 45 0 0 49 0 48 52 5 c69 7 98 39 98 107 0 38
-5 52 -26 72 -23 21 -36 24 -120 27 l-94 4 0 -156z m140 80 c20 -26 8 -61 -22
-64 -26 -3 -28 -1 -28 31 0 48 24 64 50 33z"/>
<path d="M5866 978 c-44 -154 -66 -238 -66 -248 0 -7 16 -10 42 -8 36 3 43 7
48 28 5 21 12 25 45 25 33 0 40 -4 45 -25 5 -22 12 -25 54 -28 38 -3 47 0 43
11 -3 7 -22 77 -44 155 l-38 142 -57 0 -57 0 -15 -52z m89 -90 c7 -47 7 -48
-19 -48 -14 0 -26 2 -26 5 0 2 5 27 11 55 13 60 24 55 34 -12z"/>
<path d="M6100 990 c0 -39 1 -40 35 -40 l35 0 0 -115 0 -115 45 0 45 0 0 114
0 115 33 3 c29 3 32 6 35 41 l3 37 -115 0 -116 0 0 -40z"/>
<path d="M6362 878 l3 -153 93 -3 92 -3 0 36 0 35 -50 0 c-49 0 -50 1 -50 30
0 28 2 30 40 30 38 0 40 2 40 30 0 28 -2 30 -40 30 -36 0 -40 3 -40 25 0 23 4
25 45 25 45 0 45 0 45 35 l0 35 -90 0 -91 0 3 -152z"/>
<path d="M6590 875 l0 -155 40 0 40 0 0 103 0 102 47 -102 46 -103 53 0 54 0
0 155 0 155 -40 0 -39 0 -3 -102 -3 -103 -45 103 -44 102 -53 0 -53 0 0 -155z"/>
<path d="M6980 990 c0 -38 2 -40 30 -40 l29 0 3 -112 3 -113 45 0 45 0 2 70
c0 39 2 89 2 113 1 40 3 42 31 42 28 0 30 2 30 40 l0 40 -110 0 -110 0 0 -40z"/>
<path d="M7305 1018 c-10 -30 -75 -277 -75 -287 0 -8 15 -11 42 -9 36 3 43 7
48 28 5 21 12 25 45 25 33 0 40 -4 45 -25 5 -22 12 -25 52 -28 l46 -3 -25 93
c-14 51 -33 120 -42 153 l-16 60 -58 3 c-40 2 -59 -1 -62 -10z m80 -135 c6
-41 6 -43 -19 -43 -30 0 -30 4 -15 67 13 50 23 44 34 -24z"/>
<path d="M7540 875 l0 -155 40 0 39 0 3 102 3 102 44 -102 44 -102 54 0 53 0
0 155 0 155 -40 0 -40 0 0 -97 c0 -53 -4 -93 -8 -87 -5 5 -26 48 -47 97 l-38
87 -54 0 -53 0 0 -155z"/>
<path d="M7935 1018 c-11 -32 -75 -274 -75 -285 0 -8 14 -13 39 -13 35 0 40 4
50 31 9 27 14 30 48 27 30 -2 38 -8 43 -28 5 -21 12 -25 48 -28 29 -2 42 1 42
10 0 7 -17 76 -38 153 l-38 140 -57 3 c-40 2 -59 -1 -62 -10z m84 -160 c1 -13
-7 -18 -24 -18 -29 0 -29 4 -13 68 l12 47 12 -40 c7 -22 13 -48 13 -57z"/>
<path d="M8170 875 l0 -155 45 0 45 0 0 66 0 65 33 -3 c32 -3 32 -3 35 -65 l3
-63 44 0 45 0 0 155 0 155 -45 0 -45 0 0 -55 0 -55 -35 0 -35 0 0 55 0 55 -45
0 -45 0 0 -155z"/>
<path d="M8530 875 l0 -158 83 5 c95 5 139 24 163 70 20 40 22 124 3 163 -26
54 -61 70 -160 73 l-89 4 0 -157z m154 66 c27 -30 24 -110 -4 -133 -12 -10
-31 -18 -41 -18 -17 0 -19 8 -19 85 0 83 1 85 23 85 13 0 32 -9 41 -19z"/>
<path d="M8900 1025 c0 -3 -18 -70 -40 -150 -22 -80 -40 -147 -40 -150 0 -3
20 -5 44 -5 40 0 44 2 50 30 5 27 9 30 45 30 36 0 40 -3 46 -30 6 -28 10 -30
52 -30 38 0 45 3 41 18 -3 9 -22 79 -43 155 l-38 137 -59 0 c-32 0 -58 -2 -58
-5z m90 -182 c0 -2 -14 -3 -31 -3 -24 0 -29 4 -25 18 3 9 8 31 12 47 12 52 17
51 30 -5 7 -30 13 -56 14 -57z"/>
<path d="M9122 993 c3 -35 6 -38 36 -41 l32 -3 0 -115 0 -114 45 0 45 0 0 115
0 115 35 0 c34 0 35 1 35 40 l0 40 -116 0 -115 0 3 -37z"/>
<path d="M9455 1018 c-11 -32 -75 -274 -75 -285 0 -8 14 -13 39 -13 35 0 40 4
50 31 9 27 14 30 48 27 30 -2 38 -8 43 -28 5 -21 12 -25 48 -28 53 -4 53 -7 3
168 l-38 135 -56 3 c-40 2 -59 -1 -62 -10z m80 -135 c6 -41 6 -43 -19 -43 -30
0 -30 4 -15 67 13 50 23 44 34 -24z"/>
<path d="M9690 875 l0 -155 45 0 45 0 0 56 c0 47 3 55 17 52 10 -2 21 -19 28
-43 14 -57 22 -65 60 -65 63 0 79 15 48 46 -10 9 -23 33 -30 52 -10 31 -9 38
8 60 21 27 25 72 8 104 -17 31 -71 48 -154 48 l-75 0 0 -155z m144 73 c14 -23
-3 -52 -33 -56 -19 -3 -21 1 -21 38 0 37 2 41 21 38 12 -2 27 -11 33 -20z"/>
</g>
</svg>
